HIERARCHY
ROOT Hips
{
	OFFSET -3.958830 18.904000 13.208200
	CHANNELS 6 Xposition Yposition Zposition Zrotation Yrotation Xrotation 
	JOINT LHipJoint
	{
		OFFSET 0.000000 0.000000 0.000000
		CHANNELS 3 Zrotation Yrotation Xrotation
		JOINT LeftUpLeg
		{
			OFFSET 1.800000 -1.400000 0.085000
			CHANNELS 3 Zrotation Yrotation Xrotation
			JOINT LeftLeg
			{
				OFFSET 2.215000 -6.000000 0.000000
				CHANNELS 3 Zrotation Yrotation Xrotation
				JOINT LeftFoot
				{
					OFFSET 2.500000 -6.900000 0.000000
					CHANNELS 3 Zrotation Yrotation Xrotation
					JOINT LeftToeBase
					{
						OFFSET 0.200000 -0.500000 1.950000
						CHANNELS 3 Zrotation Yrotation Xrotation
						End Site
						{
							OFFSET 0.000000 0.000000 0.000000
						}
					}
				}
			}
		}
	}
	JOINT RHipJoint
	{
		OFFSET 0.000000 0.000000 0.000000
		CHANNELS 3 Zrotation Yrotation Xrotation
		JOINT RightUpLeg
		{
			OFFSET -1.800000 -1.400000 0.085000
			CHANNELS 3 Zrotation Yrotation Xrotation
			JOINT RightLeg
			{
				OFFSET -2.215000 -6.000000 0.000000
				CHANNELS 3 Zrotation Yrotation Xrotation
				JOINT RightFoot
				{
					OFFSET -2.500000 -6.900000 0.000000
					CHANNELS 3 Zrotation Yrotation Xrotation
					JOINT RightToeBase
					{
						OFFSET -0.200000 -0.500000 1.950000
						CHANNELS 3 Zrotation Yrotation Xrotation
						End Site
						{
							OFFSET 0.000000 0.000000 0.000000
						}
					}
				}
			}
		}
	}
	JOINT LowerBack
	{
		OFFSET 0.000000 0.000000 0.000000
		CHANNELS 3 Zrotation Yrotation Xrotation
		JOINT Spine
		{
			OFFSET -0.087000 1.940000 -0.288900
			CHANNELS 3 Zrotation Yrotation Xrotation
			JOINT Spine1
			{
				OFFSET 0.000000 1.950000 0.060000
				CHANNELS 3 Zrotation Yrotation Xrotation
				JOINT Neck
				{
					OFFSET 0.000000 0.000000 0.000000
					CHANNELS 3 Zrotation Yrotation Xrotation
					JOINT Neck1
					{
						OFFSET 0.000000 1.600000 0.340000
						CHANNELS 3 Zrotation Yrotation Xrotation
						JOINT Head
						{
							OFFSET 0.000000 1.667000 -0.240000
							CHANNELS 3 Zrotation Yrotation Xrotation
							End Site
							{
								OFFSET 0.000000 0.000000 0.000000
							}
						}
					}
				}
				JOINT LeftShoulder
				{
					OFFSET 0.000000 0.000000 0.000000
					CHANNELS 3 Zrotation Yrotation Xrotation
					JOINT LeftArm
					{
						OFFSET 2.700000 1.550000 -0.730000
						CHANNELS 3 Zrotation Yrotation Xrotation
						JOINT LeftForeArm
						{
							OFFSET 5.450000 0.000000 0.000000
							CHANNELS 3 Zrotation Yrotation Xrotation
							JOINT LeftHand
							{
								OFFSET 3.450000 0.000000 0.000000
								CHANNELS 3 Zrotation Yrotation Xrotation
								JOINT LeftHandIndex1
								{
									OFFSET 0.750000 0.000000 0.000000
									CHANNELS 3 Zrotation Yrotation Xrotation
									End Site
									{
										OFFSET 0.000000 0.000000 0.000000
									}
								}
							}
						}
					}
				}
				JOINT RightShoulder
				{
					OFFSET 0.000000 0.000000 0.000000
					CHANNELS 3 Zrotation Yrotation Xrotation
					JOINT RightArm
					{
						OFFSET -2.700000 1.550000 -0.730000
						CHANNELS 3 Zrotation Yrotation Xrotation
						JOINT RightForeArm
						{
							OFFSET -5.450000 0.000000 0.000000
							CHANNELS 3 Zrotation Yrotation Xrotation
							JOINT RightHand
							{
								OFFSET -3.450000 0.000000 0.000000
								CHANNELS 3 Zrotation Yrotation Xrotation
								JOINT RightHandIndex1
								{
									OFFSET -0.750000 0.000000 0.000000
									CHANNELS 3 Zrotation Yrotation Xrotation
									End Site
									{
										OFFSET 0.000000 0.000000 0.000000
									}
								}
							}
						}
					}
				}
			}
		}
	}
}
MOTION
Frames: 4
Frame Time: 0.016667
-1.577060 16.968870 -1.135780 -1.454163 2.452033 0.099381 -14.772113 11.260428 4.388523 -2.061661 -6.743043 -41.130711 -3.543205 4.572579 21.674949 -1.268974 3.587543 3.385448 0.768220 0.317470 0.490140 18.845387 -11.199212 3.065758 9.130784 -0.683223 -0.504222 0.903395 -5.943867 27.920766 -0.892998 -5.247896 2.732597 0.397430 0.381730 0.133490 -4.982509 1.134646 -8.234305 10.342109 -0.107545 33.503904 -17.567066 8.552017 11.986575 0.414383 -6.211460 -10.075715 -13.310416 -2.697484 31.553651 11.482080 -8.007800 -27.355240 0.409157 -28.505175 -4.137298 18.136526 -41.266476 -12.558580 42.285861 -34.123163 -13.938095 -3.635649 2.445066 0.945010 -0.031310 -0.004680 0.340970 -2.970245 33.173427 9.277741 -11.959239 12.384302 -13.603206 -37.987960 37.950106 -11.512300 1.752280 -1.556259 -0.465130 0.669120 -0.028770 -0.268670 
-1.709810 17.021260 -1.077280 -1.697595 5.808540 -1.899022 -14.909876 11.422608 4.470605 -0.277224 -7.342927 -39.789286 -6.380275 6.422319 27.901717 -1.017471 4.873728 2.880988 0.651840 0.162130 0.488280 18.707493 -10.887862 3.129220 10.107701 0.563808 -1.654765 3.046330 -7.324971 33.445100 -1.025197 -5.816362 2.546561 0.256530 0.320390 0.139900 -4.633166 0.439656 -8.366959 7.472806 -0.298332 37.041684 -15.923962 7.683044 11.317290 0.770891 -5.276656 -10.604461 -12.455592 -2.179095 33.594115 11.784090 -6.593500 -29.157700 -2.051274 -28.726440 -2.870652 11.023388 -38.048041 -11.297697 54.981528 -47.117987 -24.269041 -3.493863 2.172859 1.014460 -0.072760 0.032450 0.266860 -0.931187 32.874987 10.148277 -3.824112 10.215176 -16.427918 -51.642638 52.176798 -23.049605 1.508206 -1.167778 -0.471220 0.604260 0.005850 -0.315360 
-1.831000 17.064920 -1.020310 -1.681495 11.528513 -2.242256 -15.046241 11.242075 4.770472 -0.119926 -9.462305 -40.227087 -7.072350 7.926953 35.515274 -0.729585 6.291429 2.360873 0.595760 0.109990 0.460090 18.643564 -10.472611 3.078857 9.797511 2.549543 -6.018170 7.342574 -10.293077 40.242357 -1.229071 -6.771970 2.215889 0.204060 0.301270 0.131350 -4.433397 -0.050049 -8.597445 6.042504 -1.448028 38.928592 -14.849510 5.837336 10.928414 0.865125 -5.025574 -10.322283 -12.377150 -2.417920 34.202099 12.537040 -6.583310 -30.969800 -3.363959 -28.138003 -1.866556 1.853557 -36.789149 -9.375099 67.942656 -57.869923 -38.375591 -3.320922 1.704378 1.033540 -0.100480 0.045440 0.240250 0.458737 31.602377 9.942478 4.962969 10.416764 -18.067108 -68.301095 65.666869 -41.240077 1.015826 -0.085266 -0.471550 0.589820 0.024750 -0.315450 
-1.952190 17.056450 -0.937390 -2.752893 14.318118 -2.216396 -15.158347 11.062308 4.871146 2.095811 -9.871942 -41.414086 -7.448252 10.195315 43.272367 -0.388030 8.035345 1.742951 0.604740 0.109610 0.474620 18.609650 -9.948889 3.273180 10.253030 5.704475 -11.185092 10.299656 -13.493294 48.915097 -1.588978 -8.224085 1.759787 0.189200 0.296030 0.144110 -4.232112 -0.432869 -8.894153 5.333590 -1.346471 39.036148 -13.899527 5.590199 10.661590 1.509562 -4.590955 -10.151879 -11.828115 -1.804670 35.532701 12.865970 -5.836490 -31.200900 -6.586969 -26.426872 -0.002255 -9.646483 -36.380666 -5.148224 87.665502 -65.983921 -62.193306 -3.204357 0.712209 1.044570 -0.105720 0.059760 0.249440 2.614938 29.827359 8.878794 12.653837 13.203550 -17.951936 -80.054956 75.973955 -58.416942 0.544123 1.997215 -0.460550 0.577610 0.007970 -0.317120 
